# xmcd
#
# Track frame offsets: 
#        150
#        23946
#        53375
#        79311
#        108083
#        139641
#        161878
#        184315
#        215348
#        240584
#        267977
#
# Disc length: 3721 seconds
#
# Revision: 0
# Processed by: cddbd v1.5.2PL0 Copyright (c) Steve Scherf et al.
# Submitted via: ExactAudioCopy v1.0b3
#
DISCID=910e870b
DTITLE=Various Artist - Hon Trinh Nu 2
DYEAR=1900
DGENRE=
TTITLE0=Huong Lan - Mua ngoai troi mua tinh nguoi
TTITLE1=Giao Linh - Doi thong hai mo
TTITLE2=Thien Trang - Thuong ta ao bay
TTITLE3=Huong Lan - Hen ho
TTITLE4=Giao Linh - Lay troi con duoc binh yen
TTITLE5=Huong Lan - Tra lai cho em
TTITLE6=Giao Linh - Go cua
TTITLE7=Thien Trang - Bao gio em quen
TTITLE8=Huong Lan - Tinh lo
TTITLE9=Giao Linh - Toi dua em sang song
TTITLE10=hoa tau - Nhac ket
EXTD=
EXTT0=
EXTT1=
EXTT2=
EXTT3=
EXTT4=
EXTT5=
EXTT6=
EXTT7=
EXTT8=
EXTT9=
EXTT10=
PLAYORDER=
